<svg xmlns="http://www.w3.org/2000/svg" xmlns:xlink="http://www.w3.org/1999/xlink" width="69.937" height="70" viewBox="0 0 69.937 70">
  <defs>
    <linearGradient id="linear-gradient" x1="0.5" x2="0.5" y2="1" gradientUnits="objectBoundingBox">
      <stop offset="0" stop-color="#faae1b"/>
      <stop offset="1" stop-color="#ea3a60"/>
    </linearGradient>
  </defs>
  <g id="partnership" transform="translate(-12.747 -1)">
    <g id="Group_1526" data-name="Group 1526">
      <path id="Path_3009" data-name="Path 3009" d="M48.214,17A26.5,26.5,0,1,1,21.738,43.5,26.488,26.488,0,0,1,48.214,17Z" fill="#ff4361" fill-rule="evenodd"/>
      <path id="Path_3010" data-name="Path 3010" d="M48.214,17A26.5,26.5,0,1,1,21.738,43.5,26.488,26.488,0,0,1,48.214,17Z" fill="#fff" fill-rule="evenodd"/>
    </g>
    <path id="Path_3011" data-name="Path 3011" d="M42.72,1h9.991A29.986,29.986,0,0,1,82.684,31V41A29.987,29.987,0,0,1,52.711,71H42.72A29.987,29.987,0,0,1,12.747,41V31A29.986,29.986,0,0,1,42.72,1Z" fill="#ff4361" fill-rule="evenodd"/>
    <path id="Path_3012" data-name="Path 3012" d="M42.72,1h9.991A29.986,29.986,0,0,1,82.684,31V41A29.987,29.987,0,0,1,52.711,71H42.72A29.987,29.987,0,0,1,12.747,41V31A29.986,29.986,0,0,1,42.72,1Z" fill-rule="evenodd" fill="url(#linear-gradient)"/>
    <path id="Path_3013" data-name="Path 3013" d="M51.144,41.637a1.05,1.05,0,0,0,.318-.762V38.166H62.7v8.126a2.623,2.623,0,0,1-.786,1.912,2.561,2.561,0,0,1-1.89.8H35.4a2.561,2.561,0,0,1-1.89-.8,2.623,2.623,0,0,1-.786-1.912V38.166h11.24v2.709a1.05,1.05,0,0,0,.318.762,1.025,1.025,0,0,0,.753.321h5.352A1.025,1.025,0,0,0,51.144,41.637Zm-1.288-3.471H45.574v2.167h4.282ZM61.915,28.127a2.559,2.559,0,0,0-1.89-.8H54.138V24.623a1.578,1.578,0,0,0-.468-1.152A1.542,1.542,0,0,0,52.532,23H42.9a1.542,1.542,0,0,0-1.137.474,1.578,1.578,0,0,0-.468,1.152v2.709H35.4a2.56,2.56,0,0,0-1.89.8,2.62,2.62,0,0,0-.786,1.912v6.5H62.7v-6.5A2.62,2.62,0,0,0,61.915,28.127ZM52,27.331H43.433V25.164H52Z" fill="#fff" fill-rule="evenodd"/>
  </g>
</svg>
