<svg xmlns="http://www.w3.org/2000/svg" xmlns:xlink="http://www.w3.org/1999/xlink" width="185" height="34" viewBox="0 0 185 34">
  <defs>
    <linearGradient id="linear-gradient" x1="0.5" x2="0.5" y2="1" gradientUnits="objectBoundingBox">
      <stop offset="0" stop-color="#0898e7"/>
      <stop offset="1" stop-color="#ea3a60"/>
    </linearGradient>
  </defs>
  <g id="Group_1521" data-name="Group 1521" transform="translate(-5431 -5125)">
    <path id="Path_2989" data-name="Path 2989" d="M770.071,58H745.579a1.887,1.887,0,0,1-1.749-2V52a2.154,2.154,0,0,1,.511-1.416A1.647,1.647,0,0,1,745.579,50h24.491a1.887,1.887,0,0,1,1.749,2v4A1.887,1.887,0,0,1,770.071,58Zm-2.625-5.5a1.512,1.512,0,1,0,1.313,1.5,1.614,1.614,0,0,0-.385-1.06A1.234,1.234,0,0,0,767.446,52.5Zm-3.5,0a1.512,1.512,0,1,0,1.311,1.5,1.414,1.414,0,0,0-1.311-1.5ZM770.071,68H745.579a1.889,1.889,0,0,1-1.749-2V62a1.887,1.887,0,0,1,1.749-2h24.491a1.887,1.887,0,0,1,1.749,2v4A1.889,1.889,0,0,1,770.071,68Zm-2.625-5.5a1.514,1.514,0,1,0,1.313,1.5,1.614,1.614,0,0,0-.385-1.06A1.234,1.234,0,0,0,767.446,62.5Zm-3.5,0a1.514,1.514,0,1,0,1.311,1.5,1.416,1.416,0,0,0-1.311-1.5Zm6.123,15.492H745.579a1.887,1.887,0,0,1-1.749-2v-4a1.887,1.887,0,0,1,1.749-2h24.491a1.887,1.887,0,0,1,1.749,2v3.993a2.153,2.153,0,0,1-.511,1.416A1.647,1.647,0,0,1,770.071,77.99Zm-2.625-5.5a1.514,1.514,0,1,0,1.313,1.5,1.614,1.614,0,0,0-.384-1.062,1.234,1.234,0,0,0-.929-.439Zm-3.5,0a1.514,1.514,0,1,0,1.311,1.5,1.416,1.416,0,0,0-1.311-1.5Z" transform="translate(4687.17 5078.005)" fill="url(#linear-gradient)"/>
    <g id="Group_1520" data-name="Group 1520" transform="translate(5434 5125)">
      <text id="Humanize" transform="translate(35 27)" fill="#2563ff" font-size="28" font-family="Montserrat-Bold, Montserrat" font-weight="700" letter-spacing="-0.01em"><tspan x="0" y="0">Humanize</tspan></text>
    </g>
  </g>
</svg>
