<?xml version="1.0" standalone="no"?>
<!DOCTYPE svg PUBLIC "-//W3C//DTD SVG 20010904//EN"
 "http://www.w3.org/TR/2001/REC-SVG-20010904/DTD/svg10.dtd">
<svg version="1.0" xmlns="http://www.w3.org/2000/svg"
 width="467.000000pt" height="458.000000pt" viewBox="0 0 467.000000 458.000000"
 preserveAspectRatio="xMidYMid meet">
<metadata>
Created by potrace 1.16, written by Peter Selinger 2001-2019
</metadata>
<g transform="translate(0.000000,458.000000) scale(0.100000,-0.100000)"
fill="#000000" stroke="none">
<path d="M4220 2686 c-66 -17 -135 -60 -325 -200 -365 -269 -653 -407 -1000
-479 -174 -37 -297 -49 -505 -50 -156 -1 -225 4 -435 32 -414 55 -528 40 -650
-85 l-62 -63 -26 87 c-15 48 -40 143 -57 212 -17 69 -38 144 -47 167 -23 62
-76 119 -131 140 -58 22 -200 25 -225 4 -10 -7 -17 -10 -17 -7 0 4 -10 1 -22
-6 -13 -7 -25 -13 -28 -13 -17 -1 -70 -29 -70 -36 0 -5 -7 -9 -15 -9 -8 0 -15
-4 -15 -10 0 -5 -6 -10 -14 -10 -8 0 -17 -7 -20 -16 -4 -9 -9 -14 -12 -11 -6
6 -16 -1 -96 -76 -32 -29 -58 -58 -58 -65 0 -6 -9 -17 -20 -24 -11 -7 -20 -18
-20 -25 0 -7 -4 -13 -10 -13 -5 0 -10 -7 -10 -15 0 -8 -4 -15 -8 -15 -15 0
-82 -156 -84 -193 -1 -21 -5 -37 -10 -37 -5 0 -9 -12 -7 -27 1 -16 -1 -36 -5
-45 -9 -20 4 -243 13 -243 1 0 4 -18 6 -40 3 -22 9 -41 15 -43 5 -2 8 -8 5
-12 -14 -22 123 -330 146 -330 5 0 9 -7 9 -15 0 -8 5 -15 10 -15 6 0 10 -6 10
-14 0 -8 9 -21 20 -29 11 -8 17 -16 14 -19 -3 -3 39 -52 93 -107 94 -98 233
-207 247 -194 3 3 6 1 6 -5 0 -7 7 -12 15 -12 8 0 15 -4 15 -8 0 -12 120 -63
131 -56 5 3 9 0 9 -6 0 -7 7 -10 15 -6 8 3 15 2 15 -3 0 -10 107 -34 119 -27
5 4 12 2 16 -4 4 -6 62 -10 152 -9 l146 0 26 -33 c255 -332 714 -514 1246
-495 621 23 1211 298 1550 722 211 263 344 624 376 1022 35 429 -93 808 -291
867 -62 19 -70 19 -130 2z"/>
</g>
</svg>
